<?xml version="1.0" encoding="UTF-8"?>
<svg width="329px" height="121px" viewBox="0 0 329 121" version="1.1" xmlns="http://www.w3.org/2000/svg" xmlns:xlink="http://www.w3.org/1999/xlink">
    <!-- Generator: Sketch 50.2 (55047) - http://www.bohemiancoding.com/sketch -->
    <title>Group 3</title>
    <desc>Created with Sketch.</desc>
    <defs></defs>
    <g id="Page-1" stroke="none" stroke-width="1" fill="none" fill-rule="evenodd">
        <g id="Group-3">
            <g id="baby" fill="#57BBEE" fill-rule="nonzero">
                <path d="M81,34.9998394 C81,30.2263532 77.8667871,26.0337385 73.428873,24.6949083 C69.0846152,10.4272706 55.9660957,0.0313073394 40.499209,0.0313073394 C25.0321641,0.0313073394 11.9134863,10.4272706 7.56954492,24.6950688 C3.13242188,26.0351835 0,30.2281193 0,34.9998394 C0,39.7712385 3.13242188,43.9641743 7.56922852,45.304289 C11.9131699,59.5725688 25.0320059,69.9686927 40.4990508,69.9686927 C55.9660957,69.9686927 69.0847734,59.5725688 73.428873,45.3046101 C77.8669453,43.9657798 81,39.7730046 81,34.9998394 Z M3.0224707,34.9998394 C3.0224707,32.2706422 4.45563281,29.8065138 6.65259961,28.4403899 C6.25345313,30.5659174 6.04193555,32.7582339 6.04193555,35 C6.04193555,37.2416055 6.25329492,39.4337615 6.65244141,41.5591284 C4.45563281,40.192844 3.0224707,37.7288761 3.0224707,34.9998394 Z M40.499209,66.9013761 C23.166,66.9013761 9.06424805,52.5903899 9.06424805,35 C9.06424805,22.8349312 15.8097129,12.2400459 25.7029453,6.8606422 C27.205875,10.1061697 31.933459,18.2268119 43.1399355,22.7760092 C43.3239258,22.8508257 43.5137695,22.8861468 43.7007656,22.8861468 C44.3003555,22.8861468 44.8679883,22.5213761 45.1043438,21.9215596 C45.4142637,21.1351835 45.0372656,20.2426835 44.2622285,19.9280046 C34.079959,15.794633 29.7450352,8.30479358 28.4415996,5.54011468 C31.874291,4.08761468 35.6127891,3.2362156 39.5294238,3.11516055 C40.5767285,5.27087156 43.5838535,10.3317431 49.7972813,13.1980505 C50.0002559,13.2916514 50.2125645,13.3358028 50.421709,13.3358028 C50.9961445,13.3358028 51.5452676,13.0016972 51.7985508,12.4365596 C52.1439082,11.6654358 51.8078848,10.7563991 51.0480352,10.4057569 C46.8616641,8.47465596 44.3493984,5.31662844 43.0475449,3.2041055 C59.1934395,4.52511468 71.9338535,18.2804358 71.9338535,35.0001606 C71.9341699,52.5903899 57.8327344,66.9013761 40.499209,66.9013761 Z M74.3456602,41.5604128 C74.7449648,39.4345642 74.9563242,37.2419266 74.9563242,35 C74.9563242,32.7579128 74.7448066,30.5649541 74.3453437,28.438945 C76.5432598,29.8042661 77.9772129,32.2688761 77.9772129,34.9998394 C77.9775293,37.7304817 76.5437344,40.1950917 74.3456602,41.5604128 Z" id="Shape"></path>
                <path d="M32.6010762,41.3040138 C33.4359141,41.3040138 34.1122324,40.6173394 34.1122324,39.7704358 C34.1122324,36.1036239 31.1726602,33.1205963 27.559459,33.1205963 C23.9462578,33.1205963 21.0068438,36.1036239 21.0068438,39.7704358 C21.0068438,40.6173394 21.6833203,41.3040138 22.518,41.3040138 C23.3528379,41.3040138 24.0291563,40.6173394 24.0291563,39.7704358 C24.0291563,37.7948624 25.6127695,36.1879128 27.5593008,36.1879128 C29.5059902,36.1879128 31.0896035,37.7950229 31.0896035,39.7704358 C31.0899199,40.6173394 31.7662383,41.3040138 32.6010762,41.3040138 Z" id="Shape"></path>
                <path d="M53.438959,33.1205963 C49.8257578,33.1205963 46.8861855,36.1036239 46.8861855,39.7704358 C46.8861855,40.6173394 47.5626621,41.3040138 48.3973418,41.3040138 C49.2321797,41.3040138 49.908498,40.6173394 49.908498,39.7704358 C49.908498,37.7948624 51.4919531,36.1879128 53.4388008,36.1879128 C55.3856484,36.1879128 56.9691035,37.7950229 56.9691035,39.7704358 C56.9691035,40.6173394 57.6455801,41.3040138 58.4802598,41.3040138 C59.3150977,41.3040138 59.991416,40.6173394 59.991416,39.7704358 C59.991416,36.1036239 57.0521602,33.1205963 53.438959,33.1205963 Z" id="Shape"></path>
                <path d="M47.6113887,50.0922248 C43.770375,53.9902294 37.5205605,53.9902294 33.6795469,50.0922248 C33.0891328,49.4933716 32.1324785,49.4933716 31.5423809,50.0922248 C30.9522832,50.691078 30.9522832,51.6622477 31.5423809,52.2609404 C33.9755449,54.7302064 37.208584,56.0902294 40.6457051,56.0902294 C44.0828262,56.0902294 47.315707,54.730367 49.7490293,52.2609404 C50.339127,51.6620872 50.339127,50.6909174 49.7490293,50.0922248 C49.158457,49.4933716 48.2016445,49.4933716 47.6113887,50.0922248 Z" id="Shape"></path>
                <path d="M38.4825938,45.0559174 L42.515666,45.0559174 C43.3505039,45.0559174 44.0268223,44.3692431 44.0268223,43.5223394 C44.0268223,42.6754358 43.3503457,41.9887615 42.515666,41.9887615 L38.4825938,41.9887615 C37.6477559,41.9887615 36.9714375,42.6754358 36.9714375,43.5223394 C36.9714375,44.3692431 37.6480723,45.0559174 38.4825938,45.0559174 Z" id="Shape"></path>
            </g>
            <path d="M107.855,5.5 L120.105,5.5 C125.635,5.5 128.785,7.425 128.785,11.695 C128.785,14.215 127.805,16 125.285,16.98 C128.155,17.855 129.765,19.85 129.765,23 C129.765,28.565 124.935,30 119.79,30 L107.855,30 L107.855,5.5 Z M121.715,22.055 C121.715,20.76 120.91,20.06 119.37,20.06 L115.94,20.06 L115.94,24.05 L119.37,24.05 C120.91,24.05 121.715,23.35 121.715,22.055 Z M121.015,13.27 C121.015,12.255 120.35,11.45 118.985,11.45 L115.94,11.45 L115.94,15.055 L118.985,15.09 C120.35,15.09 121.015,14.25 121.015,13.27 Z M132.2,21.495 C132.2,14.915 137.485,12.64 141.23,12.64 C148.79,12.64 150.68,18.415 149.63,23.28 L139.27,23.28 C139.865,24.715 141.895,25.38 144.065,25.38 C145.85,25.38 147.46,25.17 148.895,24.715 L148.895,29.685 C147.25,30.245 145.395,30.56 142.77,30.56 C137.38,30.56 132.2,27.97 132.2,21.495 Z M143.645,19.885 C143.82,18.905 143.33,17.505 141.615,17.505 C140.145,17.505 139.2,18.52 139.2,19.885 L143.645,19.885 Z M160.43,30 L153.045,30 L153.045,13.2 L160.43,13.2 L160.43,18.59 L161.515,18.59 L164.49,13.2 L172.505,13.2 L167.325,21.495 L172.68,30 L164.665,30 L161.48,24.33 L160.43,24.33 L160.43,30 Z M185.72,30 L178.37,30 L178.37,19.08 L174.03,19.08 L174.03,13.2 L190.06,13.2 L190.06,19.08 L185.72,19.08 L185.72,30 Z M192.04,21.6 C192.04,15.545 196.45,12.64 201.7,12.64 C206.95,12.64 211.395,15.545 211.395,21.6 C211.395,27.655 206.95,30.56 201.7,30.56 C196.45,30.56 192.04,27.655 192.04,21.6 Z M204.185,21.6 C204.185,20.025 203.555,18.73 201.7,18.73 C199.88,18.73 199.25,20.025 199.25,21.6 C199.25,23.175 199.88,24.47 201.7,24.47 C203.555,24.47 204.185,23.175 204.185,21.6 Z M221.04,15.23 C222.16,13.83 224.015,12.64 226.535,12.64 C231.89,12.64 234.235,16.98 234.235,21.6 C234.235,26.22 231.89,30.56 226.535,30.56 C224.505,30.56 222.965,29.895 221.95,28.985 L221.95,37.7 L214.565,37.7 L214.565,13.2 L221.04,13.2 L221.04,15.23 Z M226.64,21.6 C226.64,20.095 225.87,18.555 224.085,18.555 C223.07,18.555 222.265,19.15 221.915,19.745 L221.915,23.455 C222.23,24.05 223.07,24.645 224.085,24.645 C225.87,24.645 226.64,23.105 226.64,21.6 Z M107.855,40.5 L118.565,40.5 C124.795,40.5 129.555,42.67 129.555,49.565 C129.555,56.425 124.795,58.595 118.565,58.595 L115.94,58.595 L115.94,65 L107.855,65 L107.855,40.5 Z M121.54,49.565 C121.54,47.85 120.35,47.15 118.495,47.15 L115.94,47.15 L115.94,51.945 L118.495,51.945 C120.35,51.945 121.54,51.245 121.54,49.565 Z M148.965,59.68 C148.965,60.345 149.385,60.59 149.945,60.59 C150.155,60.59 150.4,60.555 150.61,60.52 L150.61,64.825 C149.7,65.21 148.125,65.455 146.9,65.455 C145.08,65.455 143.575,64.895 142.7,63.67 C141.195,64.895 139.41,65.56 137.1,65.56 C133.95,65.56 131.255,63.845 131.255,60.485 C131.255,56.215 135.175,55.025 138.64,55.025 C139.585,55.025 140.985,55.13 141.965,55.34 L141.965,54.955 C141.965,53.765 140.95,53.1 138.64,53.1 C136.54,53.1 134.51,53.59 132.585,54.29 L132.585,48.76 C134.23,48.27 137.03,47.64 139.48,47.64 C145.255,47.64 148.965,49.285 148.965,55.795 L148.965,59.68 Z M140.495,58.385 C139.48,58.385 138.395,58.77 138.395,59.89 C138.395,60.73 139.13,61.22 140.04,61.22 C140.74,61.22 141.37,61.045 141.965,60.66 L141.965,58.595 C141.58,58.455 141.055,58.385 140.495,58.385 Z M168.725,60.31 C168.725,62.795 166.765,65.56 159.8,65.56 C156.65,65.56 154.48,64.93 152.94,64.195 L152.94,59.19 C154.305,59.855 156.755,60.485 158.75,60.485 C160.15,60.485 161.095,60.205 161.095,59.4 C161.095,58.63 160.29,58.49 159.205,58.49 L155.845,58.49 L155.845,54.535 L158.925,54.535 C159.975,54.535 160.745,54.36 160.745,53.66 C160.745,53.03 160.08,52.68 158.645,52.68 C156.965,52.68 154.55,53.275 153.325,53.905 L153.325,48.865 C154.76,48.2 157.665,47.605 160.36,47.605 C167.08,47.675 168.375,50.51 168.375,52.61 C168.375,54.535 167.22,55.9 165.645,56.39 C167.78,57.055 168.725,58.49 168.725,60.31 Z M183.095,65 L171.93,65 L171.93,48.2 L182.71,48.2 C187.855,48.2 188.87,50.93 188.87,52.645 C188.87,54.57 187.995,55.865 186.315,56.565 C188.415,57.3 189.43,58.63 189.43,60.59 C189.43,62.48 188.24,65 183.095,65 Z M178.86,58.42 L178.86,60.8 L180.89,60.8 C181.8,60.8 182.36,60.345 182.36,59.61 C182.36,58.84 181.835,58.42 180.855,58.42 L178.86,58.42 Z M178.86,52.435 L178.86,54.815 L180.645,54.815 C181.555,54.815 182.115,54.395 182.115,53.625 C182.115,52.89 181.59,52.435 180.645,52.435 L178.86,52.435 Z M198.27,65 L192.495,65 L192.495,48.2 L199.425,48.2 L199.425,54.99 L205.025,48.2 L210.8,48.2 L210.8,65 L203.87,65 L203.87,58.21 L198.27,65 Z M225.45,65 L218.1,65 L218.1,54.08 L213.76,54.08 L213.76,48.2 L229.79,48.2 L229.79,54.08 L225.45,54.08 L225.45,65 Z M238.525,65 L232.75,65 L232.75,48.2 L239.68,48.2 L239.68,54.99 L245.28,48.2 L251.055,48.2 L251.055,65 L244.125,65 L244.125,58.21 L238.525,65 Z M261.47,65 L253.77,65 L257.655,59.645 C255.555,58.525 254.61,56.495 254.61,54.43 C254.61,51.35 256.78,48.2 261.925,48.2 L272.355,48.2 L272.355,65 L265.425,65 L265.425,60.59 L264.41,60.59 L261.47,65 Z M261.82,54.71 C261.82,55.655 262.415,56.215 263.64,56.215 L265.425,56.215 L265.425,53.17 L263.64,53.17 C262.415,53.17 261.82,53.765 261.82,54.71 Z" id="Вектор-Развития" fill="#303031"></path>
            <path d="M107.905,97 L106.09,97 L110.53,86.5 L112.405,86.5 L116.83,97 L115.03,97 L114.1,94.735 L108.835,94.735 L107.905,97 Z M111.265,88.75 L109.42,93.235 L113.5,93.235 L111.655,88.75 C111.595,88.585 111.535,88.42 111.46,88.165 C111.385,88.42 111.325,88.585 111.265,88.75 Z M122.655,97 L118.425,97 L118.425,89.8 L122.535,89.8 C123.99,89.8 124.815,90.595 124.815,91.72 C124.815,92.515 124.41,93.085 123.795,93.355 C124.47,93.565 125.025,94.135 125.025,95.02 C125.025,96.13 124.32,97 122.655,97 Z M120.03,93.94 L120.03,95.785 L122.265,95.785 C122.925,95.785 123.405,95.56 123.405,94.87 C123.405,94.135 122.85,93.94 122.295,93.94 L120.03,93.94 Z M120.03,91.015 L120.03,92.8 L122.175,92.8 C122.745,92.8 123.195,92.575 123.195,91.93 C123.195,91.225 122.67,91.015 122.175,91.015 L120.03,91.015 Z M130.385,97 L128.78,97 L128.78,91.21 L126.29,91.21 L126.29,89.8 L132.86,89.8 L132.86,91.21 L130.385,91.21 L130.385,97 Z M133.975,93.4 C133.975,90.91 135.865,89.605 137.875,89.605 C139.9,89.605 141.775,90.91 141.775,93.4 C141.775,95.89 139.9,97.195 137.875,97.195 C135.865,97.195 133.975,95.89 133.975,93.4 Z M140.14,93.4 C140.14,91.99 139.21,91.075 137.875,91.075 C136.525,91.075 135.595,91.99 135.595,93.4 C135.595,94.81 136.525,95.725 137.875,95.725 C139.21,95.725 140.14,94.81 140.14,93.4 Z M145.44,97 L143.835,97 L143.835,89.8 L145.44,89.8 L145.44,92.695 L149.04,92.695 L149.04,89.8 L150.645,89.8 L150.645,97 L149.04,97 L149.04,94.105 L145.44,94.105 L145.44,97 Z M152.705,93.4 C152.705,90.91 154.595,89.605 156.605,89.605 C158.63,89.605 160.505,90.91 160.505,93.4 C160.505,95.89 158.63,97.195 156.605,97.195 C154.595,97.195 152.705,95.89 152.705,93.4 Z M158.87,93.4 C158.87,91.99 157.94,91.075 156.605,91.075 C155.255,91.075 154.325,91.99 154.325,93.4 C154.325,94.81 155.255,95.725 156.605,95.725 C157.94,95.725 158.87,94.81 158.87,93.4 Z M164.11,97 L162.565,97 L162.565,89.8 L164.185,89.8 L166.63,93.595 L169.09,89.8 L170.71,89.8 L170.71,97 L169.165,97 L169.165,92.125 L167.11,95.275 L166.15,95.275 L164.11,92.125 L164.11,97 Z M174.825,97 L173.22,97 L173.22,89.8 L174.825,89.8 L174.825,92.695 L178.425,92.695 L178.425,89.8 L180.03,89.8 L180.03,97 L178.425,97 L178.425,94.105 L174.825,94.105 L174.825,97 Z M188.675,95.335 C188.675,95.74 188.915,95.86 189.2,95.86 C189.365,95.86 189.53,95.815 189.68,95.77 L189.68,96.925 C189.38,97.045 189.02,97.105 188.66,97.105 C188,97.105 187.475,96.85 187.22,96.265 C186.515,96.835 185.63,97.195 184.505,97.195 C183.2,97.195 181.985,96.475 181.985,94.99 C181.985,93.145 183.695,92.575 185.195,92.575 C185.81,92.575 186.5,92.665 187.07,92.785 L187.07,92.53 C187.07,91.63 186.41,91 185.18,91 C184.115,91 183.23,91.27 182.585,91.555 L182.585,90.085 C183.155,89.89 184.19,89.605 185.345,89.605 C187.385,89.605 188.675,90.58 188.675,92.755 L188.675,95.335 Z M185.51,93.7 C184.595,93.7 183.635,93.985 183.635,94.885 C183.635,95.59 184.265,95.95 184.985,95.95 C185.75,95.95 186.5,95.665 187.07,95.095 L187.07,93.88 C186.635,93.79 186.02,93.7 185.51,93.7 Z M192.595,97 L190.75,97 L192.73,94.465 C191.68,94.105 191.125,93.22 191.125,92.23 C191.125,90.925 192.1,89.8 193.9,89.8 L197.62,89.8 L197.62,97 L196.015,97 L196.015,94.645 L194.38,94.645 L192.595,97 Z M192.76,92.245 C192.76,92.95 193.285,93.355 194.17,93.355 L196.015,93.355 L196.015,91.135 L194.17,91.135 C193.285,91.135 192.76,91.54 192.76,92.245 Z M205.775,97 L204.17,97 L204.17,89.8 L205.775,89.8 L205.775,92.695 L209.375,92.695 L209.375,89.8 L210.98,89.8 L210.98,97 L209.375,97 L209.375,94.105 L205.775,94.105 L205.775,97 Z M213.04,93.4 C213.04,90.79 215.02,89.605 216.685,89.605 C219.55,89.605 220.54,91.915 220.075,94 L214.66,94 C214.84,95.29 216.1,95.83 217.42,95.83 C218.29,95.83 219.085,95.62 219.7,95.32 L219.7,96.7 C219.04,97.015 218.125,97.195 217.12,97.195 C214.915,97.195 213.04,95.935 213.04,93.4 Z M218.635,92.8 C218.725,92.17 218.335,90.94 216.76,90.94 C215.68,90.94 214.705,91.585 214.645,92.8 L218.635,92.8 Z M223.785,97 L222.18,97 L222.18,89.8 L223.785,89.8 L223.785,92.65 L224.97,92.65 L227.04,89.8 L228.87,89.8 L226.26,93.37 L229.155,97 L227.31,97 L224.94,94.015 L223.785,94.015 L223.785,97 Z M229.895,93.4 C229.895,90.91 231.785,89.605 233.795,89.605 C235.82,89.605 237.695,90.91 237.695,93.4 C237.695,95.89 235.82,97.195 233.795,97.195 C231.785,97.195 229.895,95.89 229.895,93.4 Z M236.06,93.4 C236.06,91.99 235.13,91.075 233.795,91.075 C232.445,91.075 231.515,91.99 231.515,93.4 C231.515,94.81 232.445,95.725 233.795,95.725 C235.13,95.725 236.06,94.81 236.06,93.4 Z M241.3,97 L239.755,97 L239.755,89.8 L241.375,89.8 L243.82,93.595 L246.28,89.8 L247.9,89.8 L247.9,97 L246.355,97 L246.355,92.125 L244.3,95.275 L243.34,95.275 L241.3,92.125 L241.3,97 Z M251.955,97 L250.41,97 L250.41,89.8 L252.03,89.8 L254.475,93.595 L256.935,89.8 L258.555,89.8 L258.555,97 L257.01,97 L257.01,92.125 L254.955,95.275 L253.995,95.275 L251.955,92.125 L251.955,97 Z M260.615,93.4 C260.615,90.79 262.595,89.605 264.26,89.605 C267.125,89.605 268.115,91.915 267.65,94 L262.235,94 C262.415,95.29 263.675,95.83 264.995,95.83 C265.865,95.83 266.66,95.62 267.275,95.32 L267.275,96.7 C266.615,97.015 265.7,97.195 264.695,97.195 C262.49,97.195 260.615,95.935 260.615,93.4 Z M266.21,92.8 C266.3,92.17 265.91,90.94 264.335,90.94 C263.255,90.94 262.28,91.585 262.22,92.8 L266.21,92.8 Z M271.18,90.925 C271.75,90.235 272.605,89.605 273.955,89.605 C276.115,89.605 277.525,91.33 277.525,93.4 C277.525,95.47 276.115,97.195 273.955,97.195 C272.695,97.195 271.855,96.64 271.36,96.07 L271.36,100.3 L269.755,100.3 L269.755,89.8 L271.18,89.8 L271.18,90.925 Z M275.89,93.4 C275.89,91.99 274.96,91.015 273.655,91.015 C272.545,91.015 271.705,91.735 271.36,92.515 L271.36,94.27 C271.705,95.065 272.545,95.785 273.655,95.785 C274.96,95.785 275.89,94.81 275.89,93.4 Z M285.555,97 L283.95,97 L283.95,94.615 C283.335,94.84 282.75,94.96 281.94,94.96 C280.335,94.96 279.15,94.135 279.15,92.32 L279.15,89.8 L280.755,89.8 L280.755,92.185 C280.755,93.235 281.4,93.55 282.405,93.55 C283.005,93.55 283.47,93.46 283.95,93.28 L283.95,89.8 L285.555,89.8 L285.555,97 Z M287.615,93.4 C287.615,90.79 289.595,89.605 291.26,89.605 C294.125,89.605 295.115,91.915 294.65,94 L289.235,94 C289.415,95.29 290.675,95.83 291.995,95.83 C292.865,95.83 293.66,95.62 294.275,95.32 L294.275,96.7 C293.615,97.015 292.7,97.195 291.695,97.195 C289.49,97.195 287.615,95.935 287.615,93.4 Z M293.21,92.8 C293.3,92.17 292.91,90.94 291.335,90.94 C290.255,90.94 289.28,91.585 289.22,92.8 L293.21,92.8 Z M296.305,93.46 C296.305,90.775 298.36,89.605 300.28,89.605 C301.09,89.605 301.87,89.785 302.5,90.16 L302.5,91.63 C301.975,91.255 301.24,91.03 300.505,91.03 C299.23,91.03 297.94,91.705 297.94,93.4 C297.94,95.035 299.185,95.77 300.475,95.77 C301.24,95.77 302.005,95.545 302.575,95.215 L302.575,96.7 C301.885,97.03 301.105,97.195 300.19,97.195 C298.27,97.195 296.305,96.025 296.305,93.46 Z M306.285,97 L304.68,97 L304.68,89.8 L306.285,89.8 L306.285,92.65 L307.47,92.65 L309.54,89.8 L311.37,89.8 L308.76,93.37 L311.655,97 L309.81,97 L307.44,94.015 L306.285,94.015 L306.285,97 Z M319.265,95.335 C319.265,95.74 319.505,95.86 319.79,95.86 C319.955,95.86 320.12,95.815 320.27,95.77 L320.27,96.925 C319.97,97.045 319.61,97.105 319.25,97.105 C318.59,97.105 318.065,96.85 317.81,96.265 C317.105,96.835 316.22,97.195 315.095,97.195 C313.79,97.195 312.575,96.475 312.575,94.99 C312.575,93.145 314.285,92.575 315.785,92.575 C316.4,92.575 317.09,92.665 317.66,92.785 L317.66,92.53 C317.66,91.63 317,91 315.77,91 C314.705,91 313.82,91.27 313.175,91.555 L313.175,90.085 C313.745,89.89 314.78,89.605 315.935,89.605 C317.975,89.605 319.265,90.58 319.265,92.755 L319.265,95.335 Z M316.1,93.7 C315.185,93.7 314.225,93.985 314.225,94.885 C314.225,95.59 314.855,95.95 315.575,95.95 C316.34,95.95 317.09,95.665 317.66,95.095 L317.66,93.88 C317.225,93.79 316.61,93.7 316.1,93.7 Z M323.185,97 L321.34,97 L323.32,94.465 C322.27,94.105 321.715,93.22 321.715,92.23 C321.715,90.925 322.69,89.8 324.49,89.8 L328.21,89.8 L328.21,97 L326.605,97 L326.605,94.645 L324.97,94.645 L323.185,97 Z M323.35,92.245 C323.35,92.95 323.875,93.355 324.76,93.355 L326.605,93.355 L326.605,91.135 L324.76,91.135 C323.875,91.135 323.35,91.54 323.35,92.245 Z M106.555,113.4 C106.555,110.91 108.445,109.605 110.455,109.605 C112.48,109.605 114.355,110.91 114.355,113.4 C114.355,115.89 112.48,117.195 110.455,117.195 C108.445,117.195 106.555,115.89 106.555,113.4 Z M112.72,113.4 C112.72,111.99 111.79,111.075 110.455,111.075 C109.105,111.075 108.175,111.99 108.175,113.4 C108.175,114.81 109.105,115.725 110.455,115.725 C111.79,115.725 112.72,114.81 112.72,113.4 Z M117.84,110.925 C118.41,110.235 119.265,109.605 120.615,109.605 C122.775,109.605 124.185,111.33 124.185,113.4 C124.185,115.47 122.775,117.195 120.615,117.195 C119.355,117.195 118.515,116.64 118.02,116.07 L118.02,120.3 L116.415,120.3 L116.415,109.8 L117.84,109.8 L117.84,110.925 Z M122.55,113.4 C122.55,111.99 121.62,111.015 120.315,111.015 C119.205,111.015 118.365,111.735 118.02,112.515 L118.02,114.27 C118.365,115.065 119.205,115.785 120.315,115.785 C121.62,115.785 122.55,114.81 122.55,113.4 Z M127.85,117 L126.245,117 L126.245,109.8 L131.615,109.8 L131.615,111.21 L127.85,111.21 L127.85,117 Z M139.39,115.335 C139.39,115.74 139.63,115.86 139.915,115.86 C140.08,115.86 140.245,115.815 140.395,115.77 L140.395,116.925 C140.095,117.045 139.735,117.105 139.375,117.105 C138.715,117.105 138.19,116.85 137.935,116.265 C137.23,116.835 136.345,117.195 135.22,117.195 C133.915,117.195 132.7,116.475 132.7,114.99 C132.7,113.145 134.41,112.575 135.91,112.575 C136.525,112.575 137.215,112.665 137.785,112.785 L137.785,112.53 C137.785,111.63 137.125,111 135.895,111 C134.83,111 133.945,111.27 133.3,111.555 L133.3,110.085 C133.87,109.89 134.905,109.605 136.06,109.605 C138.1,109.605 139.39,110.58 139.39,112.755 L139.39,115.335 Z M136.225,113.7 C135.31,113.7 134.35,113.985 134.35,114.885 C134.35,115.59 134.98,115.95 135.7,115.95 C136.465,115.95 137.215,115.665 137.785,115.095 L137.785,113.88 C137.35,113.79 136.735,113.7 136.225,113.7 Z M143.715,117 L142.11,117 L142.11,109.8 L143.715,109.8 L143.715,112.695 L147.315,112.695 L147.315,109.8 L148.92,109.8 L148.92,117 L147.315,117 L147.315,114.105 L143.715,114.105 L143.715,117 Z M152.81,117 L151.43,117 L151.43,109.8 L153.035,109.8 L153.035,114.51 L156.89,109.8 L158.27,109.8 L158.27,117 L156.665,117 L156.665,112.29 L152.81,117 Z M166.42,115.035 C166.42,116.295 165.265,117.195 163.045,117.195 C161.965,117.195 161.005,116.955 160.345,116.61 L160.345,115.23 C160.93,115.56 161.965,115.83 162.835,115.83 C163.9,115.83 164.8,115.635 164.8,114.84 C164.8,114.075 164.02,113.955 163.3,113.955 L161.83,113.955 L161.83,112.725 L163.3,112.725 C164.065,112.725 164.65,112.515 164.65,111.915 C164.65,111.27 163.96,110.955 162.925,110.955 C162.085,110.955 161.095,111.21 160.48,111.54 L160.48,110.16 C161.17,109.83 162.13,109.59 163.12,109.59 C165.34,109.59 166.27,110.535 166.27,111.705 C166.27,112.56 165.745,113.115 164.995,113.31 C165.82,113.535 166.42,114.135 166.42,115.035 Z M174.66,115.335 C174.66,115.74 174.9,115.86 175.185,115.86 C175.35,115.86 175.515,115.815 175.665,115.77 L175.665,116.925 C175.365,117.045 175.005,117.105 174.645,117.105 C173.985,117.105 173.46,116.85 173.205,116.265 C172.5,116.835 171.615,117.195 170.49,117.195 C169.185,117.195 167.97,116.475 167.97,114.99 C167.97,113.145 169.68,112.575 171.18,112.575 C171.795,112.575 172.485,112.665 173.055,112.785 L173.055,112.53 C173.055,111.63 172.395,111 171.165,111 C170.1,111 169.215,111.27 168.57,111.555 L168.57,110.085 C169.14,109.89 170.175,109.605 171.33,109.605 C173.37,109.605 174.66,110.58 174.66,112.755 L174.66,115.335 Z M171.495,113.7 C170.58,113.7 169.62,113.985 169.62,114.885 C169.62,115.59 170.25,115.95 170.97,115.95 C171.735,115.95 172.485,115.665 173.055,115.095 L173.055,113.88 C172.62,113.79 172.005,113.7 171.495,113.7 Z M185.105,118.935 L183.59,118.935 L183.59,117 L177.38,117 L177.38,109.8 L178.985,109.8 L178.985,115.59 L182.42,115.59 L182.42,109.8 L184.025,109.8 L184.025,115.62 L185.105,115.62 L185.105,118.935 Z M188.455,117 L187.075,117 L187.075,109.8 L188.68,109.8 L188.68,114.51 L192.535,109.8 L193.915,109.8 L193.915,117 L192.31,117 L192.31,112.29 L188.455,117 Z M197.625,117 L195.78,117 L197.76,114.465 C196.71,114.105 196.155,113.22 196.155,112.23 C196.155,110.925 197.13,109.8 198.93,109.8 L202.65,109.8 L202.65,117 L201.045,117 L201.045,114.645 L199.41,114.645 L197.625,117 Z M197.79,112.245 C197.79,112.95 198.315,113.355 199.2,113.355 L201.045,113.355 L201.045,111.135 L199.2,111.135 C198.315,111.135 197.79,111.54 197.79,112.245 Z" id="Автономная-некоммерч" fill="#303031"></path>
        </g>
    </g>
</svg>