<?xml version="1.0" encoding="UTF-8" standalone="no"?>
<!-- Created with Inkscape (http://www.inkscape.org/) -->

<svg
   xmlns:dc="http://purl.org/dc/elements/1.1/"
   xmlns:cc="http://creativecommons.org/ns#"
   xmlns:rdf="http://www.w3.org/1999/02/22-rdf-syntax-ns#"
   xmlns:svg="http://www.w3.org/2000/svg"
   xmlns="http://www.w3.org/2000/svg"
   xmlns:sodipodi="http://sodipodi.sourceforge.net/DTD/sodipodi-0.dtd"
   xmlns:inkscape="http://www.inkscape.org/namespaces/inkscape"
   width="21.43125mm"
   height="18.504267mm"
   viewBox="0 0 21.43125 18.504267"
   version="1.1"
   id="svg65"
   inkscape:version="0.92.3 (2405546, 2018-03-11)"
   sodipodi:docname="ano-vector-logo-small.svg">
  <defs
     id="defs59" />
  <sodipodi:namedview
     id="base"
     pagecolor="#ffffff"
     bordercolor="#666666"
     borderopacity="1.0"
     inkscape:pageopacity="0.0"
     inkscape:pageshadow="2"
     inkscape:zoom="3.959798"
     inkscape:cx="-5.5378837"
     inkscape:cy="33.391576"
     inkscape:document-units="mm"
     inkscape:current-layer="layer1"
     showgrid="false"
     inkscape:window-width="1837"
     inkscape:window-height="1025"
     inkscape:window-x="83"
     inkscape:window-y="27"
     inkscape:window-maximized="1" />
  <metadata
     id="metadata62">
    <rdf:RDF>
      <cc:Work
         rdf:about="">
        <dc:format>image/svg+xml</dc:format>
        <dc:type
           rdf:resource="http://purl.org/dc/dcmitype/StillImage" />
        <dc:title></dc:title>
      </cc:Work>
    </rdf:RDF>
  </metadata>
  <g
     inkscape:label="Layer 1"
     inkscape:groupmode="layer"
     id="layer1"
     transform="translate(-117.04033,-164.52763)">
    <g
       transform="matrix(0.26458333,0,0,0.26458333,117.04033,164.51935)"
       id="baby"
       style="fill:#57bbee;fill-rule:nonzero;stroke:none;stroke-width:1">
      <path
         d="M 81,34.999839 C 81,30.226353 77.866787,26.033738 73.428873,24.694908 69.084615,10.427271 55.966096,0.03130734 40.499209,0.03130734 25.032164,0.03130734 11.913486,10.427271 7.5695449,24.695069 3.1324219,26.035183 0,30.228119 0,34.999839 c 0,4.7714 3.1324219,8.964335 7.5692285,10.30445 4.3439415,14.26828 17.4627775,24.664404 32.9298225,24.664404 15.467045,0 28.585722,-10.396124 32.929822,-24.664083 C 77.866945,43.96578 81,39.773005 81,34.999839 Z m -77.9775293,0 c 0,-2.729197 1.4331621,-5.193325 3.6301289,-6.559449 C 6.2534531,30.565917 6.0419355,32.758234 6.0419355,35 c 0,2.241605 0.2113594,4.433762 0.6105059,6.559128 C 4.4556328,40.192844 3.0224707,37.728876 3.0224707,34.999839 Z M 40.499209,66.901376 C 23.166,66.901376 9.0642481,52.59039 9.0642481,35 c 0,-12.165069 6.7454649,-22.759954 16.6386969,-28.1393578 1.50293,3.2455278 6.230514,11.3661698 17.43699,15.9153668 0.183991,0.07482 0.373835,0.110138 0.560831,0.110138 0.59959,0 1.167222,-0.364771 1.403578,-0.964587 0.30992,-0.786377 -0.06708,-1.678877 -0.842116,-1.993555 C 34.079959,15.794633 29.745035,8.3047936 28.4416,5.5401147 c 3.432691,-1.4525 7.171189,-2.3038991 11.087824,-2.4249541 1.047305,2.155711 4.054429,7.2165824 10.267857,10.0828904 0.202975,0.0936 0.415283,0.137752 0.624428,0.137752 0.574435,0 1.123559,-0.334106 1.376842,-0.899243 0.345357,-0.771124 0.0093,-1.680161 -0.750516,-2.030803 C 46.861664,8.474656 44.349398,5.3166284 43.047545,3.2041055 59.193439,4.5251147 71.933853,18.280436 71.933853,35.000161 71.93417,52.59039 57.832734,66.901376 40.499209,66.901376 Z M 74.34566,41.560413 C 74.744965,39.434564 74.956324,37.241927 74.956324,35 c 0,-2.242087 -0.211517,-4.435046 -0.61098,-6.561055 2.197916,1.365321 3.631869,3.829931 3.631869,6.560894 3.16e-4,2.730643 -1.433479,5.195253 -3.631553,6.560574 z"
         id="Shape"
         inkscape:connector-curvature="0" />
      <path
         d="m 32.601076,41.304014 c 0.834838,0 1.511156,-0.686675 1.511156,-1.533578 0,-3.666812 -2.939572,-6.64984 -6.552773,-6.64984 -3.613201,0 -6.552615,2.983028 -6.552615,6.64984 0,0.846903 0.676476,1.533578 1.511156,1.533578 0.834838,0 1.511156,-0.686675 1.511156,-1.533578 0,-1.975574 1.583613,-3.582523 3.530145,-3.582523 1.946689,0 3.530302,1.60711 3.530302,3.582523 3.17e-4,0.846903 0.676635,1.533578 1.511473,1.533578 z"
         id="path9"
         inkscape:connector-curvature="0" />
      <path
         d="m 53.438959,33.120596 c -3.613201,0 -6.552773,2.983028 -6.552773,6.64984 0,0.846903 0.676476,1.533578 1.511156,1.533578 0.834838,0 1.511156,-0.686675 1.511156,-1.533578 0,-1.975574 1.583455,-3.582523 3.530303,-3.582523 1.946847,0 3.530303,1.60711 3.530303,3.582523 0,0.846903 0.676476,1.533578 1.511156,1.533578 0.834838,0 1.511156,-0.686675 1.511156,-1.533578 0,-3.666812 -2.939256,-6.64984 -6.552457,-6.64984 z"
         id="path11"
         inkscape:connector-curvature="0" />
      <path
         d="m 47.611389,50.092225 c -3.841014,3.898004 -10.090828,3.898004 -13.931842,0 -0.590414,-0.598853 -1.547069,-0.598853 -2.137166,0 -0.590098,0.598853 -0.590098,1.570023 0,2.168715 2.433164,2.469266 5.666203,3.829289 9.103324,3.829289 3.437121,0 6.670002,-1.359862 9.103324,-3.829289 0.590098,-0.598853 0.590098,-1.570023 0,-2.168715 -0.590572,-0.598853 -1.547385,-0.598853 -2.13764,0 z"
         id="path13"
         inkscape:connector-curvature="0" />
      <path
         d="m 38.482594,45.055917 h 4.033072 c 0.834838,0 1.511156,-0.686674 1.511156,-1.533578 0,-0.846903 -0.676476,-1.533577 -1.511156,-1.533577 h -4.033072 c -0.834838,0 -1.511157,0.686674 -1.511157,1.533577 0,0.846904 0.676635,1.533578 1.511157,1.533578 z"
         id="path15"
         inkscape:connector-curvature="0" />
    </g>
  </g>
</svg>
